<!DOCTYPE svg PUBLIC "-//W3C//DTD SVG 20010904//EN" "http://www.w3.org/TR/2001/REC-SVG-20010904/DTD/svg10.dtd">
<svg version="1.0" xmlns="http://www.w3.org/2000/svg" width="1200px" height="1200px" viewBox="0 0 12000 12000" preserveAspectRatio="xMidYMid meet">
<g id="layer101" fill="#060606" stroke="none">
 <path d="M10052 10117 l-72 -73 33 -32 33 -32 74 75 74 75 -29 30 c-16 16 -31 30 -35 30 -3 0 -38 -33 -78 -73z"/>
 <path d="M9800 9865 l-75 -75 33 -32 32 -33 75 75 75 76 -33 32 -33 32 -74 -75z"/>
 <path d="M9542 9607 l-72 -73 33 -32 33 -32 74 75 74 75 -29 30 c-16 16 -31 30 -35 30 -3 0 -38 -33 -78 -73z"/>
 <path d="M3943 9558 c-18 -11 -33 -24 -33 -29 0 -12 99 -179 107 -179 10 0 73 41 73 48 0 13 -97 176 -106 178 -5 1 -24 -7 -41 -18z"/>
 <path d="M9305 9480 l-29 -31 87 -87 87 -87 32 33 33 32 -85 85 c-47 47 -87 85 -90 85 -4 0 -19 -14 -35 -30z"/>
 <path d="M9177 9242 l-77 -78 33 -32 33 -32 77 78 77 78 -33 32 -33 32 -77 -78z"/>
 <path d="M4134 9251 c-18 -11 -35 -24 -38 -30 -6 -10 78 -166 95 -177 10 -6 65 21 74 36 5 8 -90 190 -98 190 -1 0 -16 -9 -33 -19z"/>
 <path d="M8935 9110 l-29 -31 87 -87 87 -87 32 33 33 32 -85 85 c-47 47 -87 85 -90 85 -4 0 -19 -14 -35 -30z"/>
 <path d="M4288 8971 c-54 -32 -101 -60 -104 -63 -7 -8 35 -90 44 -85 83 47 203 120 207 128 7 10 -32 79 -43 78 -4 0 -51 -26 -104 -58z"/>
 <path d="M8810 8875 l-75 -75 33 -32 32 -33 75 75 75 76 -33 32 -33 32 -74 -75z"/>
 <path d="M4394 8801 c-18 -11 -35 -24 -38 -30 -6 -10 78 -166 95 -177 10 -6 65 21 74 36 5 8 -90 190 -98 190 -1 0 -16 -9 -33 -19z"/>
 <path d="M8572 8747 l-32 -33 88 -87 88 -87 32 33 32 33 -88 87 -88 87 -32 -33z"/>
 <path d="M4548 8522 c-53 -32 -99 -60 -103 -64 -3 -3 3 -25 15 -48 l21 -41 57 32 c87 49 162 98 162 105 0 12 -41 74 -48 73 -4 0 -51 -26 -104 -57z"/>
 <path d="M7315 7380 l-1201 -1201 -38 16 c-23 10 -59 15 -89 14 l-50 -3 -404 701 -405 701 -34 -20 c-19 -11 -37 -24 -40 -29 -3 -5 176 -322 397 -705 399 -692 402 -697 386 -723 -9 -14 -24 -25 -34 -24 -10 1 -875 232 -1923 513 -1048 280 -1911 511 -1919 513 -8 1 -18 -15 -26 -41 l-13 -44 31 -12 c18 -7 888 -242 1934 -522 1870 -500 1903 -509 1903 -533 0 -36 37 -107 71 -135 l29 -24 -305 -939 c-330 -1017 -317 -963 -244 -966 l33 -2 305 938 c168 515 310 937 316 937 5 0 64 -203 130 -451 66 -248 125 -458 130 -466 17 -23 91 5 87 33 -1 11 -56 220 -122 464 -65 245 -117 447 -114 449 3 3 770 -760 1704 -1694 l1700 -1700 32 33 33 32 -1698 1698 -1697 1697 12 32 12 33 231 2 230 3 0 45 0 45 -230 3 -231 2 -12 33 -12 32 1202 1202 1202 1202 -29 31 c-16 16 -31 30 -34 30 -3 0 -546 -540 -1206 -1200z"/>
 <path d="M4654 8351 c-18 -11 -35 -24 -38 -30 -7 -10 77 -165 95 -176 10 -7 64 20 74 35 5 8 -90 190 -98 190 -1 0 -16 -9 -33 -19z"/>
 <path d="M4827 8035 c-20 -14 -37 -28 -37 -32 0 -3 23 -45 51 -94 l51 -89 30 18 c53 31 53 34 -3 131 -28 50 -52 91 -53 91 -1 0 -18 -11 -39 -25z"/>
 <path d="M4999 7765 c-123 -70 -125 -73 -98 -119 11 -20 24 -34 27 -32 103 54 212 120 212 126 0 8 -40 80 -43 80 -1 0 -45 -25 -98 -55z"/>
 <path d="M111 7693 c-5 -10 -21 -63 -35 -117 -30 -112 -27 -123 33 -128 31 -3 35 0 42 27 5 17 20 69 33 118 27 96 27 96 -36 111 -20 5 -30 2 -37 -11z"/>
 <path d="M265 7658 c-2 -7 -17 -60 -33 -118 -32 -115 -31 -123 25 -135 25 -5 34 -2 41 12 8 15 62 206 62 219 0 3 -10 8 -22 13 -56 21 -68 22 -73 9z"/>
 <path d="M421 7612 c-5 -9 -21 -64 -36 -120 -30 -116 -28 -124 31 -126 l37 -1 32 118 c22 80 29 120 21 122 -6 2 -26 8 -43 14 -28 8 -34 7 -42 -7z"/>
 <path d="M591 7482 c-4 -9 -11 -29 -15 -45 -5 -22 -2 -29 16 -37 52 -21 181 -51 188 -43 13 12 23 80 13 86 -4 3 -50 16 -101 30 -85 24 -93 24 -101 9z"/>
 <path d="M920 7468 c-17 -40 -60 -211 -54 -219 7 -12 77 -30 85 -21 4 4 21 57 37 119 33 122 32 125 -25 138 -28 6 -34 3 -43 -17z"/>
 <path d="M1089 7333 c-5 -16 -11 -33 -14 -40 -2 -6 2 -16 8 -21 16 -13 197 -61 201 -53 14 21 16 78 4 88 -12 10 -157 53 -178 53 -6 0 -15 -12 -21 -27z"/>
 <path d="M1441 7252 c-5 -10 -11 -31 -13 -47 -3 -29 -2 -30 92 -56 62 -17 99 -23 107 -17 16 13 27 68 15 80 -7 7 -173 58 -189 58 -1 0 -7 -8 -12 -18z"/>
 <path d="M1772 7244 c-18 -34 -63 -217 -55 -225 5 -4 25 -12 46 -17 28 -8 39 -8 43 1 2 7 17 60 33 119 31 117 30 123 -27 134 -23 5 -32 2 -40 -12z"/>
 <path d="M6775 6117 c-3 -7 -4 -65 -3 -128 l3 -114 45 0 45 0 0 125 0 125 -43 3 c-29 2 -44 -1 -47 -11z"/>
 <path d="M7295 6117 c-3 -7 -4 -65 -3 -128 l3 -114 45 0 45 0 0 125 0 125 -43 3 c-29 2 -44 -1 -47 -11z"/>
 <path d="M7455 6117 c-3 -7 -4 -65 -3 -128 l3 -114 45 0 45 0 0 125 0 125 -43 3 c-29 2 -44 -1 -47 -11z"/>
 <path d="M7615 6117 c-3 -7 -4 -65 -3 -128 l3 -114 45 0 45 0 0 125 0 125 -43 3 c-29 2 -44 -1 -47 -11z"/>
 <path d="M7775 6117 c-3 -7 -4 -65 -3 -128 l3 -114 45 0 45 0 0 125 0 125 -43 3 c-29 2 -44 -1 -47 -11z"/>
 <path d="M7935 6117 c-3 -7 -4 -65 -3 -128 l3 -114 45 0 45 0 0 125 0 125 -43 3 c-29 2 -44 -1 -47 -11z"/>
 <path d="M6974 6036 c-3 -8 -4 -29 -2 -48 l3 -33 105 0 105 0 0 45 0 45 -103 3 c-82 2 -103 0 -108 -12z"/>
 <path d="M8134 6036 c-3 -8 -4 -29 -2 -48 l3 -33 105 0 105 0 0 45 0 45 -103 3 c-82 2 -103 0 -108 -12z"/>
 <path d="M6315 4771 l-100 -28 2 -39 c2 -21 7 -42 13 -48 11 -11 217 40 237 58 18 17 -7 81 -32 83 -11 1 -65 -11 -120 -26z"/>
 <path d="M6381 4581 c-42 -12 -45 -29 -18 -126 l24 -90 33 2 c59 3 65 19 39 114 -22 81 -34 110 -48 108 -3 -1 -17 -4 -30 -8z"/>
 <path d="M6464 4230 c-34 -14 -35 -23 -12 -112 26 -100 32 -110 67 -102 61 15 61 14 32 121 -28 104 -37 114 -87 93z"/>
 <path d="M6555 3883 c-11 -3 -23 -8 -27 -12 -8 -7 38 -190 51 -204 7 -7 68 9 83 22 7 7 -32 167 -46 190 -7 11 -25 12 -61 4z"/>
 <path d="M5160 3834 c-24 -63 -24 -64 99 -105 63 -21 117 -36 122 -34 13 9 32 76 23 85 -5 4 -54 22 -109 40 -55 18 -106 35 -112 37 -7 3 -17 -7 -23 -23z"/>
 <path d="M5115 3697 c-2 -7 -8 -27 -14 -44 -12 -39 -15 -37 122 -83 111 -36 124 -33 129 29 3 38 5 36 -155 86 -56 17 -79 20 -82 12z"/>
 <path d="M6650 3576 l-115 -32 2 -39 c2 -21 7 -43 12 -48 6 -6 48 1 113 18 141 38 139 37 126 82 -5 21 -13 41 -16 44 -4 3 -59 -8 -122 -25z"/>
 <path d="M5132 3478 c-14 -18 -62 -179 -57 -189 9 -13 76 -32 85 -23 4 5 21 51 38 102 l31 93 -22 8 c-52 19 -65 21 -75 9z"/>
 <path d="M6686 3421 c-55 -15 -104 -34 -109 -42 -6 -9 -4 -27 6 -51 l15 -36 118 32 c65 18 119 37 121 43 6 18 -25 83 -39 82 -7 -1 -58 -13 -112 -28z"/>
 <path d="M6743 3229 c-18 -5 -35 -14 -38 -19 -7 -12 33 -170 48 -188 10 -12 67 -10 88 4 9 5 -46 207 -57 210 -5 1 -23 -2 -41 -7z"/>
 <path d="M4949 3183 c-5 -16 -11 -33 -14 -40 -6 -18 12 -28 128 -66 l108 -36 15 36 c9 19 13 41 10 48 -4 11 -204 85 -229 85 -4 0 -12 -12 -18 -27z"/>
 <path d="M4900 3034 c-26 -67 -25 -68 202 -140 14 -4 22 3 34 31 8 21 13 43 10 51 -4 10 -72 36 -213 79 -19 5 -25 1 -33 -21z"/>
 <path d="M4856 2898 c-2 -7 -9 -28 -15 -45 -6 -19 -6 -35 -1 -38 5 -3 58 -21 117 -40 120 -38 130 -36 135 24 l3 34 -100 33 c-54 19 -107 37 -117 40 -10 3 -20 0 -22 -8z"/>
 <path d="M6833 2879 c-18 -5 -34 -13 -37 -17 -5 -9 37 -172 49 -192 8 -13 64 -4 81 14 9 8 5 34 -15 105 -14 52 -30 95 -36 97 -5 1 -24 -2 -42 -7z"/>
 <path d="M4800 2726 c-22 -59 -22 -58 98 -100 101 -34 115 -37 129 -24 8 9 16 30 16 48 l2 33 -105 33 c-58 19 -111 34 -118 34 -7 0 -17 -11 -22 -24z"/>
 <path d="M4749 2573 c-5 -16 -11 -33 -14 -40 -6 -19 14 -29 124 -63 87 -27 105 -30 116 -19 21 22 28 64 13 76 -15 12 -196 73 -216 73 -7 0 -17 -12 -23 -27z"/>
 <path d="M9617 2382 l-87 -88 33 -32 33 -32 87 88 87 88 -33 32 -33 32 -87 -88z"/>
 <path d="M9755 2240 l-29 -30 74 -75 74 -75 33 32 33 32 -72 73 c-40 40 -75 73 -78 73 -4 0 -19 -14 -35 -30z"/>
 <path d="M10012 1987 l-32 -33 75 -74 75 -75 32 33 33 32 -75 75 -76 75 -32 -33z"/>
 <path d="M10265 1730 l-29 -30 74 -75 74 -75 33 32 33 32 -72 73 c-40 40 -75 73 -78 73 -4 0 -19 -14 -35 -30z"/>
 <path d="M10522 1477 l-32 -33 75 -74 75 -75 32 33 33 32 -75 75 -76 75 -32 -33z"/>
 <path d="M10747 1252 l-87 -88 33 -32 33 -32 87 88 87 88 -33 32 -33 32 -87 -88z"/>
 <path d="M10857 1142 l-87 -88 35 -34 35 -34 88 87 87 87 -35 35 -35 35 -88 -88z"/>
 <path d="M11002 997 l-32 -33 75 -74 75 -75 32 33 33 32 -75 75 -76 75 -32 -33z"/>
 </g>
<g id="layer102" fill="#ffffff" stroke="none">
 <path d="M0 6000 l0 -6000 6000 0 6000 0 0 6000 0 6000 -6000 0 -6000 0 0 -6000z m10155 4150 c18 -20 18 -22 -45 -85 l-64 -65 -23 22 -24 22 63 63 c34 35 65 63 69 63 3 0 14 -9 24 -20z m-300 -339 l-65 -66 -22 23 -22 22 64 65 64 65 23 -22 24 -22 -66 -65z m-210 -171 c18 -20 18 -22 -45 -85 l-64 -65 -23 22 -24 22 63 63 c34 35 65 63 69 63 3 0 14 -9 24 -20z m-5611 -172 l37 -66 -22 -16 c-12 -8 -26 -13 -30 -10 -4 2 -26 37 -49 76 l-41 72 23 18 c28 21 32 17 82 -74z m5386 -53 l74 -75 -22 -22 -22 -23 -77 77 c-76 76 -77 77 -58 98 10 11 21 20 24 20 4 0 40 -34 81 -75z m-187 -227 l-67 -68 -23 22 -24 22 68 68 67 68 23 -22 24 -22 -68 -68z m-5024 -24 c24 -41 41 -77 40 -78 -10 -8 -51 -27 -53 -24 -1 2 -22 36 -46 77 -40 70 -42 75 -24 88 10 7 23 13 29 13 6 0 30 -34 54 -76z m4841 -119 l74 -75 -22 -22 -22 -23 -77 77 c-76 76 -77 77 -58 98 10 11 21 20 24 20 4 0 40 -34 81 -75z m-4630 -84 c0 -7 -175 -111 -188 -111 -5 0 -14 11 -20 25 -11 23 -8 26 81 79 92 55 92 55 110 34 9 -11 17 -23 17 -27z m4445 -140 l-65 -66 -22 23 -22 22 64 65 64 65 23 -22 24 -22 -66 -65z m-4396 -107 c24 -41 41 -77 40 -78 -10 -8 -51 -27 -53 -24 -1 2 -22 36 -46 77 -40 70 -42 75 -24 88 10 7 23 13 29 13 6 0 30 -34 54 -76z m4269 -131 l-22 -24 -78 78 -78 77 22 23 22 24 78 -78 78 -77 -22 -23z m-4058 -72 c0 -8 -174 -111 -188 -111 -5 0 -14 11 -20 25 -11 23 -8 26 61 66 40 23 81 47 92 55 17 11 22 10 38 -8 9 -11 17 -23 17 -27z m3865 29 c19 -21 9 -31 -1184 -1224 l-1203 -1203 19 -39 18 -39 228 -3 227 -2 0 -30 0 -30 -227 -2 -228 -3 -18 -39 -19 -39 1699 -1699 1698 -1698 -23 -22 -22 -23 -1700 1700 c-1499 1499 -1701 1698 -1714 1685 -13 -13 -1 -68 104 -460 66 -245 120 -453 120 -462 0 -11 -8 -18 -20 -18 -11 0 -23 -1 -26 -2 -4 -2 -62 201 -128 451 -125 464 -136 496 -170 461 -8 -8 -96 -267 -196 -575 -100 -308 -236 -726 -302 -928 l-120 -369 -26 7 c-15 4 -28 8 -29 9 -1 1 135 424 302 941 l305 938 -35 33 c-37 34 -65 88 -65 127 0 14 -6 29 -12 34 -7 6 -876 241 -1930 523 -1521 407 -1918 517 -1918 529 1 49 -55 62 1941 -473 l1924 -516 28 32 c15 18 27 36 27 41 0 5 -180 322 -401 704 -221 382 -399 696 -398 697 10 9 51 27 54 24 1 -2 183 -316 404 -699 l401 -696 53 5 c35 3 66 -1 92 -12 l39 -17 1201 1201 c660 660 1203 1200 1206 1200 3 0 14 -9 24 -20z m-3816 -276 c24 -41 41 -77 40 -78 -10 -9 -51 -27 -53 -24 -2 2 -22 36 -46 77 -40 70 -42 75 -24 88 10 7 23 13 29 13 6 0 30 -34 54 -76z m179 -310 c41 -72 42 -77 25 -90 -10 -7 -22 -13 -28 -14 -5 0 -30 34 -54 76 -41 72 -43 76 -25 89 11 8 24 14 29 15 6 0 29 -34 53 -76z m198 -181 c7 -10 14 -21 14 -25 0 -7 -173 -108 -186 -108 -13 0 -37 41 -29 48 11 12 170 102 179 102 5 0 15 -8 22 -17z m-4926 -109 c0 -8 -12 -57 -26 -109 -26 -93 -27 -95 -53 -88 -14 3 -27 7 -29 8 -3 2 48 196 54 206 7 12 54 -3 54 -17z m156 -51 c-3 -8 -15 -51 -27 -96 -11 -45 -24 -85 -27 -89 -4 -4 -19 -4 -33 0 l-26 7 30 107 29 106 30 -10 c19 -7 27 -15 24 -25z m142 -22 c11 -7 9 -26 -12 -106 -14 -53 -26 -99 -26 -101 0 -7 -34 -4 -48 4 -9 7 -6 31 14 110 27 103 37 116 72 93z m245 -146 c56 -16 58 -18 52 -43 -4 -15 -8 -28 -9 -29 -5 -5 -164 43 -165 50 -7 41 -1 50 32 44 17 -3 58 -13 90 -22z m262 15 c11 0 10 -13 -5 -67 -10 -38 -23 -87 -29 -110 -8 -30 -16 -41 -26 -38 -8 3 -21 7 -29 9 -13 4 -11 20 10 98 32 122 32 121 50 114 9 -3 22 -6 29 -6z m233 -146 c62 -16 74 -30 53 -62 -6 -10 -25 -9 -94 9 l-85 21 10 30 c8 24 15 28 32 24 11 -4 49 -13 84 -22z m405 -114 c4 -4 5 -19 2 -33 l-7 -25 -71 19 c-40 11 -80 22 -89 25 -9 3 -15 12 -12 20 2 7 6 20 8 28 4 13 17 12 83 -6 43 -11 82 -24 86 -28z m203 34 l21 -6 -27 -101 c-21 -81 -31 -103 -46 -105 -41 -5 -43 9 -18 103 34 129 29 120 70 109z m5024 -1234 l0 -110 -30 0 -30 0 0 110 0 110 30 0 30 0 0 -110z m520 0 l0 -110 -30 0 -30 0 0 110 0 110 30 0 30 0 0 -110z m160 0 l0 -110 -30 0 -30 0 0 110 0 110 30 0 30 0 0 -110z m160 0 l0 -110 -30 0 -30 0 0 110 0 110 30 0 30 0 0 -110z m160 0 l0 -110 -30 0 -30 0 0 110 0 110 30 0 30 0 0 -110z m160 0 l0 -110 -30 0 -30 0 0 110 0 110 30 0 30 0 0 -110z m-840 0 l0 -30 -90 0 -90 0 0 30 0 30 90 0 90 0 0 -30z m1160 0 l0 -30 -90 0 -90 0 0 30 0 30 90 0 90 0 0 -30z m-1880 -1251 c7 -25 5 -26 -98 -53 -57 -15 -106 -26 -107 -24 -2 2 -6 15 -10 29 -6 25 -4 26 87 51 51 15 99 26 107 25 8 -1 18 -13 21 -28z m-12 -265 c13 -48 22 -88 20 -89 -2 -2 -15 -6 -29 -10 -25 -6 -26 -4 -47 73 -27 98 -27 100 1 105 12 2 24 5 27 6 3 0 15 -38 28 -85z m81 -301 c24 -93 33 -134 30 -137 -2 -2 -16 -6 -30 -9 -24 -6 -26 -3 -42 61 -9 37 -19 77 -23 89 -4 15 -1 22 13 26 37 10 42 6 52 -30z m107 -400 l22 -82 -28 -10 c-24 -8 -30 -7 -34 7 -40 132 -44 161 -28 165 38 11 46 1 68 -80z m-1239 -16 c2 -3 -1 -16 -6 -30 l-10 -26 -105 35 -105 35 10 29 10 28 101 -34 c56 -18 103 -35 105 -37z m-142 -117 c93 -30 95 -31 89 -58 -4 -15 -8 -29 -10 -31 -3 -3 -195 58 -203 65 -7 6 10 54 19 54 5 0 53 -14 105 -30z m1523 -100 c3 -24 -2 -27 -99 -53 -56 -15 -103 -26 -105 -25 -1 2 -5 15 -9 30 -6 25 -4 27 37 38 23 6 63 17 88 25 63 19 84 15 88 -15z m-1574 -100 c4 -5 -4 -45 -19 -89 -24 -74 -29 -81 -48 -75 -12 3 -25 9 -28 13 -3 3 5 43 19 89 23 74 27 82 46 76 12 -3 25 -10 30 -14z m1617 -46 c5 -15 8 -28 6 -30 -7 -7 -207 -57 -211 -53 -3 2 -7 15 -11 29 -6 24 -3 26 92 51 54 15 101 27 106 28 4 1 12 -11 18 -25z m-11 -273 c19 -70 21 -85 9 -92 -34 -22 -47 -10 -64 61 -24 98 -24 103 5 110 14 4 26 6 26 6 1 -1 12 -39 24 -85z m-1708 20 c74 -25 83 -31 80 -52 -1 -12 -5 -25 -7 -28 -3 -3 -52 10 -109 29 l-104 33 10 29 c8 21 15 27 28 23 10 -3 56 -19 102 -34z m15 -172 c26 -10 26 -9 13 -43 l-9 -25 -105 35 -105 35 10 29 10 28 81 -25 c45 -14 92 -29 105 -34z m-33 -187 c-4 -15 -7 -28 -8 -29 -2 -2 -199 59 -204 63 -2 1 -1 16 3 32 l6 30 105 -35 c102 -34 104 -35 98 -61z m1821 -16 c23 -84 23 -86 4 -87 -10 -1 -24 -2 -30 -3 -17 -1 -61 164 -46 169 35 10 42 12 45 10 2 -2 14 -42 27 -89z m-1963 -77 c98 -30 100 -32 93 -58 -4 -14 -8 -28 -10 -30 -4 -3 -196 58 -204 65 -5 5 8 54 15 54 3 0 51 -14 106 -31z m-50 -151 c95 -31 99 -34 93 -58 -4 -14 -8 -26 -10 -28 -2 -2 -51 11 -108 28 l-105 33 10 28 c5 16 13 29 16 29 3 0 50 -15 104 -32z m4791 -220 l-77 -78 -23 22 -24 22 78 78 77 78 23 -22 24 -22 -78 -78z m185 -141 l63 -63 -24 -22 -23 -22 -64 65 c-63 63 -63 65 -45 85 10 11 21 20 24 20 4 0 35 -28 69 -63z m294 -339 l-22 -22 -65 64 -65 64 22 23 22 24 65 -66 66 -65 -23 -22z m216 -171 l63 -63 -24 -22 -23 -22 -64 65 c-63 63 -63 65 -45 85 10 11 21 20 24 20 4 0 35 -28 69 -63z m294 -339 l-22 -22 -65 64 -65 64 22 23 22 24 65 -66 66 -65 -23 -22z m141 -140 l-77 -78 -23 22 -24 22 78 78 77 78 23 -22 24 -22 -78 -78z m115 -115 l-77 -77 -26 24 -26 24 78 78 78 78 25 -25 25 -25 -77 -77z m224 -225 l-22 -22 -65 64 -65 64 22 23 22 24 65 -66 66 -65 -23 -22z"/>
 </g>

</svg>